<?xml version="1.0" encoding="UTF-8" standalone="no"?>
<!-- Created with Inkscape (http://www.inkscape.org/) -->

<svg
   width="32"
   height="32"
   viewBox="0 0 8.4666665 8.4666666"
   version="1.1"
   id="svg1"
   inkscape:version="1.4.3 (0d15f75042, 2025-12-25)"
   sodipodi:docname="about.svg"
   xmlns:inkscape="http://www.inkscape.org/namespaces/inkscape"
   xmlns:sodipodi="http://sodipodi.sourceforge.net/DTD/sodipodi-0.dtd"
   xmlns="http://www.w3.org/2000/svg"
   xmlns:svg="http://www.w3.org/2000/svg">
  <sodipodi:namedview
     id="namedview1"
     pagecolor="#202020"
     bordercolor="#000000"
     borderopacity="0.25"
     inkscape:showpageshadow="2"
     inkscape:pageopacity="0.0"
     inkscape:pagecheckerboard="false"
     inkscape:deskcolor="#000000"
     inkscape:document-units="px"
     showborder="true"
     inkscape:antialias-rendering="true"
     inkscape:zoom="8"
     inkscape:cx="4.5"
     inkscape:cy="30.5"
     inkscape:window-width="1904"
     inkscape:window-height="1004"
     inkscape:window-x="8"
     inkscape:window-y="1118"
     inkscape:window-maximized="1"
     inkscape:current-layer="layer1"
     showgrid="false" />
  <defs
     id="defs1" />
  <g
     inkscape:label="Слой 1"
     inkscape:groupmode="layer"
     id="layer1">
    <g
       id="g3"
       transform="translate(0.11624184,3.7202161)"
       sodipodi:insensitive="true"
       style="display:none">
      <rect
         style="fill:#ffffff;stroke-width:0.529167;stroke-linecap:square"
         id="rect1"
         width="4.4979167"
         height="1.5875"
         x="-4.9296446"
         y="-4.067802"
         transform="rotate(135)" />
      <path
         sodipodi:type="star"
         style="fill:#ffffff;stroke-width:0.374234;stroke-linecap:square"
         id="path1"
         inkscape:flatsided="true"
         sodipodi:sides="3"
         sodipodi:cx="0.89269298"
         sodipodi:cy="2.3644302"
         sodipodi:r1="0.69652826"
         sodipodi:r2="0.34826413"
         sodipodi:arg1="1.0471976"
         sodipodi:arg2="2.0943951"
         inkscape:rounded="0"
         inkscape:randomized="0"
         d="M 1.2409571,2.9676414 0.19616473,2.3644302 1.2409571,1.761219 Z"
         inkscape:transform-center-x="-0.28063303"
         transform="matrix(1.0744068,-1.0744068,-0.93046357,-0.93046357,3.1129281,5.9173127)"
         inkscape:transform-center-y="-0.14834103" />
      <rect
         style="fill:#ffffff;stroke-width:0.529168;stroke-linecap:square"
         id="rect2"
         width="0.52916664"
         height="1.5875"
         x="-5.987978"
         y="-4.067802"
         transform="rotate(135)" />
    </g>
    <circle
       style="fill:none;fill-opacity:1;stroke:#ffffff;stroke-width:0.529167;stroke-dasharray:none;stroke-opacity:1"
       id="path5"
       cx="4.2333331"
       cy="4.2333331"
       r="2.9434896" />
    <path
       d="m 3.7671724,4.837478 h 0.9348098 c 0,-0.266023 0.188951,-0.3853604 0.4002777,-0.5171288 0.2734816,-0.1715476 0.5842561,-0.3704433 0.5842561,-0.937296 0,-0.6314939 -0.5767976,-1.0591197 -1.4519387,-1.0591197 -0.8726549,0 -1.4544248,0.4698911 -1.4544248,1.1734847 h 0.8726549 c 0,-0.2560782 0.2312162,-0.4276258 0.5817699,-0.4276258 0.3107746,0 0.5171289,0.126796 0.5171289,0.3406089 0,0.2486197 -0.17652,0.3604985 -0.3853605,0.4872945 C 4.0903779,4.064271 3.7671724,4.2606805 3.7671724,4.837478 Z M 3.7447967,5.67284 c 0,0.2610506 0.216299,0.4698911 0.4897806,0.4698911 0.2685092,0 0.4872945,-0.2088405 0.4872945,-0.4698911 0,-0.2560782 -0.2187853,-0.4674049 -0.4872945,-0.4674049 -0.2685092,0 -0.4897806,0.2113267 -0.4897806,0.4674049 z"
       id="text5"
       style="font-weight:800;font-size:5.09173px;font-family:Sublima;-inkscape-font-specification:'Sublima Ultra-Bold';fill:#ffffff;stroke-width:0.529167"
       aria-label="?" />
  </g>
</svg>
