<?xml version="1.0" encoding="UTF-8" standalone="no"?>
<svg
   version="1.1"
   height="32"
   width="32"
   id="svg1"
   sodipodi:docname="pi_symbol.svg"
   inkscape:version="1.4 (e7c3feb100, 2024-10-09)"
   xmlns:inkscape="http://www.inkscape.org/namespaces/inkscape"
   xmlns:sodipodi="http://sodipodi.sourceforge.net/DTD/sodipodi-0.dtd"
   xmlns="http://www.w3.org/2000/svg"
   xmlns:svg="http://www.w3.org/2000/svg">
  <defs
     id="defs1" />
  <sodipodi:namedview
     id="namedview1"
     pagecolor="#202020"
     bordercolor="#000000"
     borderopacity="0.25"
     inkscape:showpageshadow="2"
     inkscape:pageopacity="0.0"
     inkscape:pagecheckerboard="0"
     inkscape:deskcolor="#000000"
     showgrid="false"
     inkscape:zoom="15.810713"
     inkscape:cx="15.622319"
     inkscape:cy="17.298398"
     inkscape:window-width="1896"
     inkscape:window-height="1006"
     inkscape:window-x="10"
     inkscape:window-y="10"
     inkscape:window-maximized="0"
     inkscape:current-layer="layer1" />
  <g
     inkscape:groupmode="layer"
     id="layer1"
     inkscape:label="Layer 1">
    <path
       style="fill:#ffffff;fill-opacity:1;stroke:none;stroke-width:0.0366118"
       d="m 5.6128414,12.067829 0.7569591,0.05607 C 7.154795,11.23611 7.4631857,8.6101155 12.089046,9.1241005 11.920833,20.375689 6.9865817,21.562526 7.2949723,23.870784 7.4071142,25.179107 8.4444289,25.982793 9.5658496,26.029519 13.10767,25.908032 12.948803,21.132648 14.051533,9.0960651 h 4.569789 c -0.242974,4.2427089 -0.906481,8.4854169 -0.981242,12.6440189 0.05607,2.766171 1.738202,4.242709 3.953008,4.261399 3.644618,0.121488 4.794073,-4.130567 4.794073,-5.94353 h -0.784994 c -0.07476,1.495228 -0.794339,2.569922 -2.326948,2.635339 -4.177293,0.05607 -1.87838,-7.345307 -1.850344,-13.5411565 l 4.962286,0.028036 -0.02803,-3.1680141 C 5.7339462,5.9122487 8.3518693,5.5079003 5.6128414,12.067829 Z"
       id="path1" />
  </g>
</svg>
